ply
format ascii 1.0
element vertex 100
property float x
property float y
property float z
property uchar red
property uchar green
property uchar blue
end_header
-0.19005303 -0.45441657 0.0071640736 91 229 36
0.12848142 -0.3235252 -0.053547997 180 109 113
-0.41649973 0.40741593 -0.42709288 164 245 140
-0.31278378 -0.26002255 0.13576108 71 83 239
0.34675825 -0.2998497 -0.48286355 134 75 121
-0.21061513 0.1104895 0.15994824 122 20 167
-0.19778593 0.30234978 3.548644e-05 198 41 240
-0.3729859 0.09668313 -0.26500306 33 141 43
-0.19444312 0.097212434 0.4885315 49 183 98
0.14876014 -0.22887762 0.40197188 132 141 138
0.107581586 -0.013072148 -0.25196797 85 51 174
-0.3436893 0.09419791 -0.036214262 240 19 157
0.14219423 0.38832194 0.4237929 219 24 71
0.18748362 -0.20736492 -0.20982464 239 160 124
0.06484902 -0.114200465 -0.09027942 29 144 165
-0.23406142 0.286893 -0.4214847 147 157 203
-0.21233399 0.43439394 0.13307506 112 217 203
0.20622188 -0.25056472 -0.20861286 10 254 69
0.4101456 -0.49048442 -0.07432113 111 71 75
-0.07030789 -0.104619876 -0.030333841 240 9 193
0.19127473 -0.086534575 -0.13113673 217 245 60
0.15734503 0.056223854 -0.3921388 145 69 88
-0.029448109 0.15283945 -0.10690241 99 74 121
0.4453229 0.2893338 -0.036750354 191 52 79
-0.3620245 -0.15944538 0.17512572 155 229 33
0.35893282 0.46853128 -0.4783602 143 247 201
-0.028145926 0.13482897 -0.038797397 70 214 140
-0.30653557 -0.39098608 -0.39279637 60 214 32
-0.09166518 0.43713906 -0.25746256 38 53 226
-0.17080812 -0.49934614 -0.48614022 250 71 136
-0.45113578 -0.05432227 -0.45432487 108 150 8
0.20646437 -0.4263328 -0.4390368 20 154 130
0.17448865 -0.21658257 -0.43934494 18 98 142
-0.06421129 -0.16035783 -0.36124396 100 96 3
-0.4562088 0.25346902 0.4517319 228 250 188
-0.3812564 -0.29311192 0.2839645 138 193 73
-0.36951837 -0.2495528 -0.122360215 22 45 113
-0.24498402 0.06667843 0.46890736 216 59 90
-0.4297768 0.23398696 0.31515735 104 248 8
0.3811885 0.4712734 -0.044621743 112 61 71
0.3788602 0.15466069 0.19028932 94 90 166
-0.22093526 0.31387624 0.41441485 26 176 85
-0.39746907 -0.08149138 0.4936152 215 248 234
0.07560442 -0.093933195 -0.0033736778 245 198 158
-0.4362062 0.37447977 0.18294701 154 9 70
0.36543164 0.21974507 -0.21459383 241 42 203
0.4579495 -0.46682185 -0.4512922 47 163 102
0.072251126 0.10089801 -0.19282565 85 121 28
-0.41293445 -0.31599057 0.19118069 120 128 42
-0.12439241 0.021989914 -0.28927332 229 234 232
0.11629428 0.48725918 0.08844211 108 159 201
-0.31193075 -0.3088831 0.4894096 62 206 0
0.21156247 -0.38934615 0.46609423 7 54 228
0.12489229 -0.01352905 0.47742987 69 150 116
-0.21438295 -0.4091608 -0.318031 213 183 13
-0.3234017 -0.4794024 0.38697946 250 1 11
-0.18513536 0.42220595 0.29642814 218 27 74
-0.01693421 -0.33210215 0.33125734 215 191 98
-0.4822283 -0.25745606 0.024689404 103 47 49
-0.13452764 -0.2773658 0.21115051 74 145 27
0.40367004 0.025873134 -0.38494295 65 238 213
0.17740849 -0.15348774 0.35747346 41 25 20
-0.059023824 0.113369234 0.42557707 246 14 44
-0.45937026 0.029689003 0.45520043 25 81 112
0.036535896 0.48756996 0.20987748 88 237 20
0.06506826 0.39478368 -0.18485233 192 161 20
0.06767343 -0.09160706 0.27887788 186 225 235
0.13072348 -0.107456036 0.03287098 83 240 59
-0.33707398 -0.35032925 0.414697 241 98 142
-0.006669992 0.43480545 -0.15359983 42 84 26
-0.25063914 0.09433965 -0.37786868 59 2 38
0.4632197 0.29137897 0.17131816 94 106 167
-0.14206193 0.39628538 0.45866355 133 201 158
-0.37552926 -0.2618379 -0.34571695 231 22 225
0.114644885 0.11623829 0.163496 229 190 144
0.21941347 0.047479406 0.037930347 87 226 51
0.37839073 -0.027292075 -0.02282094 66 160 135
0.4631527 0.3187783 0.2730365 202 209 51
0.02176741 -0.015730076 -0.49767223 39 140 237
-0.4377975 0.15797995 0.3247133 123 203 70
-0.2640723 -0.33041328 0.42287135 209 167 79
-0.39992926 0.22824888 -0.015370769 236 228 210
0.011878614 -0.33771855 0.19925399 165 193 16
0.30851027 -0.35389698 -0.0384886 129 97 239
-0.046019357 0.36687014 -0.14212346 150 212 9
0.16697903 0.4215095 -0.301593 106 69 119
-0.44628838 0.04675151 -0.316742 148 50 250
0.034911312 0.018328546 -0.4910613 180 24 173
-0.27289143 0.10865768 0.18032555 129 21 109
0.29319677 -0.33101752 0.09127443 110 246 186
0.26331812 0.32011393 -0.2735671 179 190 92
-0.40263855 0.044712223 0.070293576 125 188 39
0.0010168526 -0.19179916 -0.3210734 138 64 102
0.33917144 -0.025103847 0.14510988 148 105 2
-0.05641685 0.11841916 0.35627478 34 90 180
-0.16132624 -0.18404807 -0.26627275 97 222 11
0.46099254 -0.23997098 0.18142982 70 33 134
-0.11644486 0.018049184 -0.4456077 151 155 147
0.06807562 -0.11923132 0.17857563 14 147 182
0.119678296 0.3077311 0.115485884 240 67 72
